<svg id="Layer_1" data-name="Layer 1" xmlns="http://www.w3.org/2000/svg" viewBox="0 0 512 512"><defs><style>.cls-1{fill:#495875;}.cls-2{fill:#2686ef;}</style></defs><title>gesture-27-filled</title><path class="cls-1" d="M152.89,512H359.11a14.22,14.22,0,0,0,14.22-14.22V456.2a143,143,0,0,1,8.76-49.35l4.53-12.35a131.51,131.51,0,0,0,8-45.37V292.78c0-22.44-16.92-41.63-38.53-43.69A43.25,43.25,0,0,0,333.76,253c-6.25-13.72-19.21-23.78-34.51-25.24a43.27,43.27,0,0,0-20.1,2.92c-4.85-16.78-19.28-29.69-36.78-31.36A43.3,43.3,0,0,0,224,201.56V143.44c0-22.44-16.92-41.63-38.53-43.69a42.68,42.68,0,0,0-46.81,42.47v136c-21,2.66-36,11.56-44.45,26.56-23.37,41.29,17,110.88,21.7,118.68.19.32.4.63.62.94,17.15,24.06,22.14,33.74,22.14,51.58v21.84A14.22,14.22,0,0,0,152.89,512ZM119,318.74c3.41-6,10-10,19.69-11.78v13a14.22,14.22,0,0,0,28.44,0V142.22a14.22,14.22,0,0,1,15.67-14.15c7.17.68,12.78,7.44,12.78,15.38V256A14.22,14.22,0,0,0,224,256V241.78a14.22,14.22,0,0,1,15.67-14.15c7.17.68,12.78,7.44,12.78,15.38v41.44a14.22,14.22,0,0,0,28.44,0V270.22a14.22,14.22,0,0,1,15.67-14.15c7.17.68,12.78,7.44,12.78,15.38v34.33a14.22,14.22,0,0,0,28.44,0V291.56a14.22,14.22,0,0,1,15.67-14.15c7.17.68,12.78,7.44,12.78,15.38v56.35a103.19,103.19,0,0,1-6.31,35.58l-4.53,12.35a171.28,171.28,0,0,0-10.49,59.14v27.35H167.11v-7.62c0-26.54-8.67-41.76-27.09-67.61C125.69,384.19,107.51,339,119,318.74Z"/><path class="cls-2" d="M429.61,61c.06-.21.11-.41.16-.62s.13-.48.18-.73.08-.49.11-.73.07-.42.09-.64a14.3,14.3,0,0,0,0-2.8c0-.22-.06-.43-.09-.64s-.06-.49-.11-.73-.12-.49-.18-.73-.1-.42-.16-.62-.16-.47-.25-.71-.14-.4-.22-.6-.2-.44-.31-.66-.18-.4-.29-.6-.25-.43-.38-.64-.21-.37-.33-.55-.35-.49-.54-.73-.19-.26-.29-.39a14.25,14.25,0,0,0-1-1.07L383.39,4.17a14.22,14.22,0,1,0-20.11,20.11l18.39,18.39H302.22a14.22,14.22,0,0,0,0,28.44h79.44L363.28,89.5a14.22,14.22,0,1,0,20.11,20.11L426,67a14.31,14.31,0,0,0,1-1.07c.1-.13.19-.26.29-.39s.37-.48.54-.73.22-.37.33-.55.26-.42.38-.64.19-.4.29-.6.21-.44.31-.66.15-.4.22-.6S429.54,61.25,429.61,61Z"/><path class="cls-2" d="M266.67,156.44a14.22,14.22,0,0,0,14.22-14.22,99.56,99.56,0,1,0-199.11,0,14.22,14.22,0,0,0,28.44,0,71.11,71.11,0,0,1,142.22,0A14.22,14.22,0,0,0,266.67,156.44Z"/></svg>